<?xml version="1.0" standalone="no"?>
<!DOCTYPE svg PUBLIC "-//W3C//DTD SVG 20010904//EN"
 "http://www.w3.org/TR/2001/REC-SVG-20010904/DTD/svg10.dtd">
<svg version="1.0" xmlns="http://www.w3.org/2000/svg"
 width="256.000000pt" height="255.000000pt" viewBox="0 0 256.000000 255.000000"
 preserveAspectRatio="xMidYMid meet">

<g transform="translate(0.000000,255.000000) scale(0.100000,-0.100000)"
fill="#000000" stroke="none">
<path d="M265 1918 c-3 -7 -4 -258 -3 -558 l3 -545 112 -3 113 -3 2 436 3 435
89 -403 c49 -221 93 -417 98 -434 l9 -33 114 0 c111 0 115 1 120 23 10 43 116
513 152 677 20 91 39 168 42 172 3 4 6 -190 6 -430 l0 -437 110 0 110 0 0 555
0 555 -170 0 -170 0 -96 -417 c-52 -230 -98 -420 -100 -422 -3 -3 -35 129 -73
292 -37 163 -82 354 -98 425 l-30 127 -169 0 c-127 0 -171 -3 -174 -12z"/>
<path d="M1460 1371 l0 -561 283 0 c155 0 308 4 340 10 123 20 213 84 264 189
37 75 39 202 4 273 -23 48 -93 118 -118 118 -21 0 -15 14 15 34 83 55 114 179
76 305 -20 69 -81 130 -160 162 -57 23 -71 24 -381 27 l-323 3 0 -560z m598
341 c34 -19 54 -58 54 -102 -1 -54 -17 -79 -65 -101 -36 -16 -67 -19 -204 -19
l-163 0 0 121 0 121 178 -4 c115 -2 185 -8 200 -16z m-24 -422 c22 -5 53 -22
69 -38 25 -26 30 -38 30 -84 1 -72 -18 -108 -73 -135 -41 -21 -58 -23 -212
-23 l-168 0 0 145 0 145 158 0 c86 0 175 -5 196 -10z"/>
</g>
</svg>
